<svg width="70" height="70" viewBox="0 0 70 70" fill="none" xmlns="http://www.w3.org/2000/svg">
<circle cx="35" cy="35" r="35" fill="black" fill-opacity="0.36"/>
<path d="M25.4062 62.625C24.1979 63.6667 23.0833 64.1875 22.0625 64.1875C21.0625 64.1875 20.3021 63.9375 19.7812 63.4375C19.2812 62.9583 19.0312 62.3229 19.0312 61.5312C19.5104 61.3021 19.875 61.0521 20.125 60.7812C19.7708 59.7188 19.5938 58.4479 19.5938 56.9688C19.5938 55.4896 19.8438 54.0104 20.3438 52.5312C20.8646 51.0312 21.625 49.625 22.625 48.3125C24.4167 46 27.4271 43.5833 31.6562 41.0625C34.1771 39.375 35.9583 37.6667 37 35.9375C38.25 33.8125 38.875 31.125 38.875 27.875C38.875 21.7917 36.8021 18.75 32.6562 18.75C30.5521 18.75 28.7708 19.4792 27.3125 20.9375C25.75 22.5 24.9688 24.6354 24.9688 27.3438C24.9688 30.0521 25.5 32.0729 26.5625 33.4062C26.0833 33.8021 25.5833 34 25.0625 34C24.5625 34 24.0417 33.9062 23.5 33.7188C22.9583 33.5104 22.4583 33.2083 22 32.8125C20.9583 31.8542 20.4375 30.7292 20.4375 29.4375C20.4375 28.125 20.6042 27.0938 20.9375 26.3438C19.8333 25.6146 19.2812 24.6667 19.2812 23.5C19.2812 22.3333 19.6771 21.3333 20.4688 20.5C19.8021 19.6458 19.4688 18.8646 19.4688 18.1562C19.4688 17.4271 19.5625 16.8125 19.75 16.3125C19.9583 15.7917 20.25 15.3333 20.625 14.9375C21.3958 14.125 22.3333 13.7188 23.4375 13.7188C23.9792 13.7188 24.4792 13.8333 24.9375 14.0625C24.6458 14.4583 24.5 14.875 24.5 15.3125C24.5 15.875 24.8125 16.1562 25.4375 16.1562C25.8542 16.1562 26.625 15.9688 27.75 15.5938C29.8125 14.9062 32.0938 14.5625 34.5938 14.5625C37.0938 14.5625 39.1042 14.7188 40.625 15.0312C42.1667 15.3438 43.5625 15.8438 44.8125 16.5312C47.3333 17.9062 49.3125 20.1667 50.75 23.3125C51.4167 24.8333 52.4062 25.9792 53.7188 26.75C52.4688 27.4583 51.4271 28.8542 50.5938 30.9375C49.0729 34.6458 46.5625 37.7083 43.0625 40.125C41.8542 40.9375 40.2812 41.8229 38.3438 42.7812C36.4062 43.7188 34.6354 44.6667 33.0312 45.625C31.4271 46.5833 30.125 47.4792 29.125 48.3125C27.2708 49.8542 26.1458 51.4479 25.75 53.0938C28.6458 53.5938 31.7188 53.8438 34.9688 53.8438C38.2188 53.8438 40.4896 53.75 41.7812 53.5625C43.0729 53.3542 44.1042 53.0417 44.875 52.625C46.3125 51.8958 47.0312 50.7083 47.0312 49.0625C47.0312 48.4583 46.9062 47.9375 46.6562 47.5C46.7812 47.2083 47.1354 47.0625 47.7188 47.0625C48.3021 47.0625 48.8125 47.1771 49.25 47.4062C49.7083 47.6354 50.1042 47.9375 50.4375 48.3125C51.1458 49.1458 51.5 50.1979 51.5 51.4688C51.5 52.7396 50.9896 53.9062 49.9688 54.9688C50.7604 55.4896 51.1562 56.2188 51.1562 57.1562C51.1562 58.0938 50.8854 58.8333 50.3438 59.375C50.6354 59.8542 50.7812 60.3438 50.7812 60.8438C50.7812 61.3229 50.6875 61.7396 50.5 62.0938C50.3333 62.4271 50.1042 62.7083 49.8125 62.9375C49.1875 63.3958 48.3958 63.625 47.4375 63.625C46.4792 63.625 45.5833 63.4167 44.75 63C41.7292 63.4167 38.6042 63.625 35.375 63.625C32.1667 63.625 28.8438 63.2917 25.4062 62.625ZM39.4062 19.1875C40.9479 20.9167 41.7188 23.625 41.7188 27.3125C41.7188 30.9167 41.4271 33.4167 40.8438 34.8125C41.6771 34.6458 42.3958 33.7708 43 32.1875C43.2083 31.6042 43.3646 31 43.4688 30.375C43.5938 29.75 43.6875 29.2604 43.75 28.9062C43.8333 28.5521 43.9583 28.2396 44.125 27.9688C44.4375 27.4271 44.9896 27.0208 45.7812 26.75C44.9479 26.4792 44.4375 26.1979 44.25 25.9062C44.0625 25.5938 43.9271 25.2917 43.8438 25L43.5312 23.9062C43.0104 22.0521 42.1042 20.6771 40.8125 19.7812C40.375 19.4688 39.9062 19.2708 39.4062 19.1875ZM45.9688 56.1562C43.7604 57.1354 40.2396 57.625 35.4062 57.625C30.5729 57.625 27.2396 57.2188 25.4062 56.4062C25.3229 56.5312 25.3125 56.7188 25.375 56.9688C25.4375 57.2188 25.5521 57.4479 25.7188 57.6562C25.8854 57.8646 26.3333 58.0625 27.0625 58.25C27.8125 58.4375 28.6667 58.5833 29.625 58.6875C31.0833 58.875 32.6667 58.9688 34.375 58.9688C36.0833 58.9688 37.4792 58.9479 38.5625 58.9062C39.6667 58.8646 40.6979 58.7917 41.6562 58.6875C43.8854 58.4167 45.2188 57.9896 45.6562 57.4062C45.9271 57.0521 46.0312 56.6354 45.9688 56.1562Z" fill="black"/>
</svg>
