<svg width="70" height="72" viewBox="0 0 70 72" fill="none" xmlns="http://www.w3.org/2000/svg">
<circle cx="35" cy="35" r="35" fill="#3AE60F" fill-opacity="0.51"/>
<path d="M23.7188 66.125C22.6562 66.6042 21.7292 66.6562 20.9375 66.2812C20.1458 65.9271 19.5625 65.5521 19.1875 65.1562C18.3542 64.3021 17.9375 63.3646 17.9375 62.3438C17.9375 61.3229 18.2708 60.4167 18.9375 59.625C18.125 58.7083 17.7188 57.6146 17.7188 56.3438C17.7188 55.0729 18.2812 54.0833 19.4062 53.375C19.2604 52.8542 19.1875 52.1458 19.1875 51.25C19.1875 50.3542 19.2917 49.625 19.5 49.0625C19.7292 48.5 20.0417 48 20.4375 47.5625C21.3333 46.6458 22.4583 46.1875 23.8125 46.1875C24.3958 46.1875 24.9062 46.3854 25.3438 46.7812C24.2812 48.1354 23.75 50.1354 23.75 52.7812C23.75 55.4688 24.6458 57.6042 26.4375 59.1875C28.125 60.6458 30.2708 61.375 32.875 61.375C35.875 61.375 37.9375 59.75 39.0625 56.5C39.4583 55.2917 39.6562 53.8125 39.6562 52.0625V47.6875C39.6562 43.375 38.5833 40.5 36.4375 39.0625C35.7292 38.5625 34.7083 38.3125 33.375 38.3125C32.0625 38.3125 30.8854 38.4271 29.8438 38.6562C28.8021 38.8646 27.9375 39.1042 27.25 39.375C26.5625 39.6458 25.9792 39.8958 25.5 40.125C25.0417 40.3333 24.5521 40.4375 24.0312 40.4375C21.6146 40.4375 20.4479 39.3125 20.5312 37.0625V20.9375C20.6146 18.8333 21.0625 17.5 21.875 16.9375C22.2083 16.6875 22.7604 16.5625 23.5312 16.5625C24.3229 16.5625 25 16.9792 25.5625 17.8125C28.3542 16.9792 31.0208 16.5625 33.5625 16.5625C36.125 16.5625 39.125 16.7917 42.5625 17.25C43.7083 16.7917 44.6979 16.5625 45.5312 16.5625C46.3646 16.5625 46.9688 16.625 47.3438 16.75C47.7188 16.8542 48.0625 17.0208 48.375 17.25C49.0208 17.75 49.3438 18.3438 49.3438 19.0312C49.3438 19.6979 49.1146 20.3333 48.6562 20.9375C49.3646 21.4583 49.7188 22.1979 49.7188 23.1562C49.7188 24.1146 49.3854 24.875 48.7188 25.4375C49.0938 25.9375 49.2812 26.5208 49.2812 27.1875C49.2812 27.8333 49.1979 28.3646 49.0312 28.7812C48.8646 29.1979 48.625 29.5625 48.3125 29.875C47.625 30.625 46.8021 31 45.8438 31C44.9271 31 44.4062 30.7292 44.2812 30.1875C44.5521 29.8958 44.6875 29.4167 44.6875 28.75C44.6875 28.0625 44.4688 27.5521 44.0312 27.2188C43.6146 26.8646 42.9375 26.5521 42 26.2812C39.9792 25.6979 37.2604 25.4062 33.8438 25.4062C30.4479 25.4062 27.625 25.8125 25.375 26.625V36.625C28.1875 34.9583 31.6875 34.125 35.875 34.125C42.5625 34.125 47.1667 36.2188 49.6875 40.4062C50.5 41.7812 51.0312 43.0312 51.2812 44.1562C51.5521 45.2812 51.8021 46.0312 52.0312 46.4062C52.2604 46.7604 52.5208 47.0833 52.8125 47.375C53.2083 47.8333 53.7708 48.2708 54.5 48.6875C52.75 49.6667 51.7083 50.9271 51.375 52.4688C50.3125 57.3646 48.4167 60.7917 45.6875 62.75C43.0208 64.6667 39.0208 65.625 33.6875 65.625C30.4375 65.625 27.6458 65.1458 25.3125 64.1875C24.8958 64.0208 24.5208 63.9375 24.1875 63.9375C23.5833 63.9375 23.2812 64.1979 23.2812 64.7188C23.2812 65.2396 23.4271 65.7083 23.7188 66.125ZM25.625 22.5625C27.125 21.75 30 21.3438 34.25 21.3438C38.5 21.3438 41.6042 21.8333 43.5625 22.8125C43.625 22.1875 43.4792 21.6979 43.125 21.3438C42.7917 20.9688 41.8958 20.6458 40.4375 20.375C38.9792 20.0833 37.4271 19.9375 35.7812 19.9375C34.1562 19.9375 32.8646 19.9688 31.9062 20.0312C30.9688 20.0938 30.1042 20.1875 29.3125 20.3125C27.6042 20.5417 26.5312 20.8542 26.0938 21.25C25.6771 21.625 25.5208 22.0625 25.625 22.5625ZM40.6875 39.9375C42 42.2917 42.6562 45.1979 42.6562 48.6562C42.6562 53.3646 42.2604 56.5104 41.4688 58.0938C42.1979 57.9479 42.7396 57.5729 43.0938 56.9688C43.6771 55.9271 44.1146 54.6042 44.4062 53C44.6979 51.375 45.0521 50.2917 45.4688 49.75C45.8854 49.1875 46.3333 48.8229 46.8125 48.6562C46.2083 48.4688 45.7083 48.0729 45.3125 47.4688C44.9167 46.8646 44.6042 45.9896 44.375 44.8438C44.1458 43.6979 43.6667 42.625 42.9375 41.625C42.2292 40.625 41.4792 40.0625 40.6875 39.9375Z" fill="black"/>
</svg>
