<svg width="70" height="70" viewBox="0 0 70 70" fill="none" xmlns="http://www.w3.org/2000/svg">
<circle cx="35" cy="35" r="35" fill="black" fill-opacity="0.36"/>
<path d="M23.9062 64.9062C23.3646 65.2188 22.7604 65.375 22.0938 65.375C21.4271 65.375 20.8646 65.3125 20.4062 65.1875C19.9688 65.0625 19.5729 64.8646 19.2188 64.5938C18.3646 63.9688 17.9375 63.1875 17.9375 62.25C17.9375 61.3125 18.1146 60.5417 18.4688 59.9375C17.7396 59.25 17.375 58.3542 17.375 57.25C17.375 56.125 17.9271 55.1146 19.0312 54.2188C18.9062 53.9062 18.8438 53.5208 18.8438 53.0625C18.8438 52.5833 18.9375 52.125 19.125 51.6875C19.3333 51.2292 19.5938 50.8542 19.9062 50.5625C20.5312 49.9792 21.1771 49.6875 21.8438 49.6875C23.2396 49.6875 24.1458 49.875 24.5625 50.25C24.5 50.3958 24.4062 50.5417 24.2812 50.6875C24.1562 50.8125 24.0417 50.9792 23.9375 51.1875C23.6667 51.6875 23.5312 52.3958 23.5312 53.3125C23.5312 54.2083 23.7396 55.0729 24.1562 55.9062C24.5729 56.7188 25.1771 57.3958 25.9688 57.9375C27.4688 59.0208 29.6354 59.5625 32.4688 59.5625C34.5521 59.5625 36.3021 58.8542 37.7188 57.4375C39.1979 55.9583 39.9375 54.0104 39.9375 51.5938V45.5C37.875 46.6458 35.6979 47.2188 33.4062 47.2188C31.1354 47.2188 29.0625 46.9792 27.1875 46.5C25.3333 46.0208 23.6771 45.2292 22.2188 44.125C19.1562 41.8125 17.2083 38.1562 16.375 33.1562C16.125 31.8229 15.1354 30.6458 13.4062 29.625C15.0104 28.7292 16.0833 27.375 16.625 25.5625C17.1667 23.75 18.0417 22.1354 19.25 20.7188C20.4583 19.2812 21.8438 18.1042 23.4062 17.1875C26.4479 15.4375 29.6979 14.5625 33.1562 14.5625C36.6146 14.5625 39.5 14.9896 41.8125 15.8438C44.125 16.6771 46.0938 17.8854 47.7188 19.4688C50.8438 22.5521 52.7292 26.9792 53.375 32.75C53.6875 35.4375 54.75 37.2188 56.5625 38.0938C54.75 38.9479 53.6875 40.6458 53.375 43.1875C52.75 48.6667 50.8229 53.3333 47.5938 57.1875C43.8646 61.5833 38.9583 63.7812 32.875 63.7812C30.4375 63.7812 28.6354 63.5625 27.4688 63.125C26.2188 62.6667 25.25 62.4375 24.5625 62.4375C23.9792 62.4375 23.6875 62.8021 23.6875 63.5312C23.6875 63.9271 23.7604 64.3854 23.9062 64.9062ZM31.625 42.5625C32.2708 42.875 33.0625 43.0312 34 43.0312C34.9375 43.0312 35.7917 42.8542 36.5625 42.5C37.3542 42.125 38 41.6354 38.5 41.0312C39.4583 39.8646 39.9375 38.3333 39.9375 36.4375V26.9688C39.9375 23.0729 38.7812 20.5312 36.4688 19.3438C35.6979 18.9479 34.875 18.75 34 18.75C33.125 18.75 32.3646 18.8958 31.7188 19.1875C31.0729 19.4583 30.5104 19.8958 30.0312 20.5C28.9688 21.7708 28.4375 23.6146 28.4375 26.0312V35.7812C28.4375 39.2812 29.5 41.5417 31.625 42.5625ZM23.1875 40C23.4792 39.7708 23.625 39.4271 23.625 38.9688C23.625 38.5104 23.5312 38.0521 23.3438 37.5938C23.1562 37.1146 23 36.6875 22.875 36.3125L22.4062 34.9375C21.6979 32.8333 21.3438 31.2708 21.3438 30.25C21.3438 29.2292 21.4062 28.4167 21.5312 27.8125C21.6771 27.2083 21.8438 26.6354 22.0312 26.0938C22.4062 25.1146 22.7812 24.3021 23.1562 23.6562C24.0312 22.2188 24.4688 21.3958 24.4688 21.1875C24.4688 20.7292 24.3229 20.3854 24.0312 20.1562C22.6354 21.2396 21.4375 22.8333 20.4375 24.9375C20.0208 25.8333 19.6875 26.8542 19.4375 28C19.3333 28.5625 18.7188 29.1042 17.5938 29.625C18.7188 30.1458 19.3333 30.6667 19.4375 31.1875C20.125 34.3125 21.0625 36.7917 22.25 38.625L23.1875 40ZM45.0312 40.375C45.0312 39.3333 45.75 38.5625 47.1875 38.0625C45.75 37.625 45.0312 36.7292 45.0312 35.375C45.0312 34.0208 45.0208 32.9167 45 32.0625C44.9792 31.2083 44.9479 30.4583 44.9062 29.8125C44.7396 27.25 44.4479 25.6667 44.0312 25.0625C43.6146 24.4583 43.25 24.0833 42.9375 23.9375V54.7188C43.8125 54.3854 44.3542 53.4583 44.5625 51.9375C44.875 50.0625 45.0312 46.2083 45.0312 40.375Z" fill="black"/>
</svg>
