<svg width="70" height="72" viewBox="0 0 70 72" fill="none" xmlns="http://www.w3.org/2000/svg">
<circle cx="35" cy="35" r="35" fill="#3AE60F" fill-opacity="0.51"/>
<path d="M29.1875 62.3125C31.0417 62.3125 32.3229 61.5208 33.0312 59.9375V51.25H16.3438C15.0938 51.25 14.1875 51.0417 13.625 50.625C13.0833 50.2083 12.8125 49.7292 12.8125 49.1875C12.8125 48.3333 13.3542 47.1979 14.4375 45.7812L30.6875 20.5625C31.7292 19.1875 32.6562 18.1771 33.4688 17.5312C34.2812 16.8854 35.1042 16.5625 35.9375 16.5625C36.7917 16.5625 37.6146 16.8646 38.4062 17.4688C39.2188 16.8646 40.0833 16.5625 41 16.5625C41.9167 16.5625 42.75 16.7708 43.5 17.1875C44.3333 16.7708 45.1354 16.5625 45.9062 16.5625C46.6979 16.5625 47.3125 16.6354 47.75 16.7812C48.2083 16.9271 48.6042 17.125 48.9375 17.375C49.7083 17.9583 50.0938 18.6562 50.0938 19.4688C50.0938 19.8854 49.9792 20.25 49.75 20.5625C49.2917 20.2083 48.7083 20.0312 48 20.0312C46.4375 20.0312 45.2812 20.6979 44.5312 22.0312V47.0625C46.4688 47.0625 47.7917 46.9062 48.5 46.5938C49.2292 46.2604 49.75 45.875 50.0625 45.4375C50.3958 44.9792 50.5625 44.1875 50.5625 43.0625C50.5625 41.9375 50.3438 41.0104 49.9062 40.2812C50.2396 39.9896 50.7604 39.8438 51.4688 39.8438C52.8646 39.8438 53.875 40.5625 54.5 42C54.7292 42.5208 54.8438 43.0729 54.8438 43.6562C54.8438 44.2188 54.7188 44.8542 54.4688 45.5625C55.3229 46.5417 55.75 47.7083 55.75 49.0625C55.75 50.3958 55.3229 51.5521 54.4688 52.5312C54.7188 53.2396 54.8438 53.8854 54.8438 54.4688C54.8438 55.0312 54.7292 55.5729 54.5 56.0938C54.2708 56.6146 53.9792 57.0312 53.625 57.3438C53 57.9271 52.2812 58.2188 51.4688 58.2188C50.8854 58.2188 50.3646 58.0521 49.9062 57.7188C50.3438 56.9896 50.5625 56.1562 50.5625 55.2188C50.5625 54.2604 50.3854 53.5417 50.0312 53.0625C49.6771 52.5625 49.2604 52.2083 48.7812 52C48.3021 51.7917 47.8958 51.6562 47.5625 51.5938C47.25 51.5312 46.9167 51.4792 46.5625 51.4375C45.75 51.3125 45.0729 51.25 44.5312 51.25V59.9375C45.2396 61.5208 46.5208 62.3125 48.375 62.3125C49.0833 62.3125 49.6667 62.1354 50.125 61.7812C50.3542 62.0938 50.4688 62.4583 50.4688 62.875C50.4688 63.2708 50.3438 63.6458 50.0938 64C49.8646 64.3542 49.5417 64.6667 49.125 64.9375C48.1667 65.5 47.0729 65.7812 45.8438 65.7812C44.6146 65.7812 43.4688 65.4479 42.4062 64.7812C41.3438 65.4479 40.1354 65.7812 38.7812 65.7812C37.4271 65.7812 36.2188 65.4479 35.1562 64.7812C34.0938 65.4479 33.1042 65.7812 32.1875 65.7812C31.2917 65.7812 30.5521 65.6979 29.9688 65.5312C29.3854 65.3854 28.875 65.1875 28.4375 64.9375C27.5417 64.375 27.0938 63.6875 27.0938 62.875C27.0938 62.4583 27.2083 62.0938 27.4375 61.7812C27.8958 62.1354 28.4792 62.3125 29.1875 62.3125ZM33.0312 47.0625V24.5625L18.7188 47.0625H33.0312ZM40.0625 48.9688C38.6458 48.5312 37.9375 47.9375 37.9375 47.1875C37.9375 35.9792 37.8542 29.8542 37.6875 28.8125C37.4375 27.2917 36.8854 26.3333 36.0312 25.9375V56.7188C37.3021 56.2188 37.9375 54.1667 37.9375 50.5625C37.9375 49.9792 38.6458 49.4479 40.0625 48.9688Z" fill="black"/>
</svg>
