<svg width="70" height="74" viewBox="0 0 70 74" fill="none" xmlns="http://www.w3.org/2000/svg">
<circle cx="35" cy="39" r="35" fill="black" fill-opacity="0.36"/>
<path d="M24.0312 64.125C23.5312 64.3542 23 64.4688 22.4375 64.4688C21.8958 64.4688 21.375 64.3438 20.875 64.0938C20.3958 63.8646 19.9896 63.5521 19.6562 63.1562C18.9271 62.3229 18.5625 61.4167 18.5625 60.4375C18.5625 59.4375 18.875 58.5104 19.5 57.6562C18.7292 56.8854 18.3438 55.8958 18.3438 54.6875C18.3438 53.4792 18.9271 52.5104 20.0938 51.7812C19.6979 51.0312 19.5 50.1979 19.5 49.2812C19.5 48.3646 19.6042 47.625 19.8125 47.0625C20.0417 46.5 20.3646 46 20.7812 45.5625C21.6562 44.6458 22.7708 44.1875 24.125 44.1875C24.7083 44.1875 25.2188 44.3854 25.6562 44.7812C24.5938 46.1354 24.0625 48.1354 24.0625 50.7812C24.0625 54.9271 25.5521 57.6042 28.5312 58.8125C29.4688 59.1875 30.4375 59.375 31.4375 59.375C32.4583 59.375 33.4167 59.2292 34.3125 58.9375C35.2292 58.6458 36.0521 58.1667 36.7812 57.5C38.4479 55.9792 39.2812 53.7083 39.2812 50.6875V47.3125C39.2812 45.0833 38.8438 43.2917 37.9688 41.9375C37.1354 40.625 36.0729 40.0104 34.7812 40.0938C31.5312 40.3021 29.9062 39.4271 29.9062 37.4688C29.9062 36.6771 30.1875 36.0208 30.75 35.5C31.1875 35.7917 31.6667 35.9375 32.1875 35.9375C32.7083 35.9375 33.0833 35.8854 33.3125 35.7812L34.375 35.3125C35.5625 34.75 36.4896 33.8438 37.1562 32.5938C37.5312 31.8854 37.7188 31 37.7188 29.9375V27.1875C37.7188 24.1667 37.0729 21.9375 35.7812 20.5C34.7604 19.3333 33.3229 18.75 31.4688 18.75C28.5521 18.75 26.5938 20.2083 25.5938 23.125C25.2604 24.0833 25.0938 25.0625 25.0938 26.0625C25.0938 27.0625 25.1562 27.8333 25.2812 28.375C25.4271 28.8958 25.5938 29.3333 25.7812 29.6875C26.0521 30.25 26.3542 30.6562 26.6875 30.9062C26.2708 31.3021 25.7292 31.5 25.0625 31.5C24.4167 31.5 23.8125 31.3958 23.25 31.1875C22.6875 30.9792 22.2083 30.7083 21.8125 30.375C20.9792 29.6667 20.5625 28.9167 20.5625 28.125C20.5625 27.3125 20.6771 26.6771 20.9062 26.2188C19.9062 25.5312 19.4062 24.6146 19.4062 23.4688C19.4062 22.3229 19.8021 21.3333 20.5938 20.5C19.9271 19.6458 19.5938 18.8646 19.5938 18.1562C19.5938 17.4271 19.6875 16.8125 19.875 16.3125C20.0833 15.7917 20.3646 15.3333 20.7188 14.9375C21.5104 14.125 22.4583 13.7188 23.5625 13.7188C24.1042 13.7188 24.6042 13.8333 25.0625 14.0625C24.7708 14.5208 24.625 14.9375 24.625 15.3125C24.625 15.875 24.9375 16.1562 25.5625 16.1562C25.9792 16.1562 26.6979 16 27.7188 15.6875C30.0938 14.9375 32.2812 14.5625 34.2812 14.5625C36.2812 14.5625 38.0625 14.7708 39.625 15.1875C41.2083 15.5833 42.6562 16.1562 43.9688 16.9062C46.8229 18.5312 48.5938 20.6354 49.2812 23.2188C49.6979 24.6562 50.6875 25.8333 52.25 26.75C50.6458 27.6458 49.6042 28.9062 49.125 30.5312C48.2708 33.3646 46.2917 35.4688 43.1875 36.8438C45.2708 37.6354 47.0417 38.7083 48.5 40.0625C49.9792 41.3958 50.9688 42.9375 51.4688 44.6875C51.8021 45.875 52.7917 46.9479 54.4375 47.9062C52.8333 48.8021 51.75 50.1667 51.1875 52C50.6458 53.8333 49.75 55.5 48.5 57C47.2708 58.4792 45.8438 59.7083 44.2188 60.6875C40.9896 62.6458 37.2708 63.625 33.0625 63.625C30.4375 63.625 27.9479 63.1458 25.5938 62.1875C25.1979 62.0208 24.8333 61.9375 24.5 61.9375C23.8958 61.9375 23.5938 62.1979 23.5938 62.7188C23.5938 63.2396 23.7396 63.7083 24.0312 64.125ZM40 34.8438C41.2292 34.6354 42.0521 32.7292 42.4688 29.125C42.5938 28.0208 43.3438 27.2292 44.7188 26.75C44.0729 26.5417 43.5208 26.1354 43.0625 25.5312C42.625 24.9062 42.3542 24.3021 42.25 23.7188C42.1458 23.1146 41.9896 22.5729 41.7812 22.0938C41.5938 21.6146 41.375 21.1875 41.125 20.8125C40.5833 20.0208 40.0417 19.5833 39.5 19.5L39.8125 20.1875C40.3125 21.2292 40.5625 22.8646 40.5625 25.0938C40.5625 27.3229 40.5521 28.8333 40.5312 29.625C40.5312 30.4167 40.5104 31.1146 40.4688 31.7188C40.4271 32.7188 40.2708 33.7604 40 34.8438ZM41.25 56.7188C41.9167 56.5938 42.4062 56.2604 42.7188 55.7188C43.2188 54.8646 43.6042 53.6667 43.875 52.125C44.3333 49.7083 45.1354 48.3021 46.2812 47.9062C44.9896 47.5104 44.2396 46.6354 44.0312 45.2812C43.8021 43.9479 43.3958 42.9375 42.8125 42.25C41.8958 41.1458 41.1146 40.5417 40.4688 40.4375C40.5521 40.625 40.6875 40.8646 40.875 41.1562C41.0625 41.4479 41.25 41.8542 41.4375 42.375C41.8958 43.6875 42.125 45.2188 42.125 46.9688C42.125 48.7188 42.0938 50.0729 42.0312 51.0312C41.9896 51.9896 41.9271 52.8542 41.8438 53.625C41.6771 55.125 41.4792 56.1562 41.25 56.7188Z" fill="black"/>
</svg>
