<svg width="70" height="72" viewBox="0 0 70 72" fill="none" xmlns="http://www.w3.org/2000/svg">
<circle cx="35" cy="37" r="35" fill="black" fill-opacity="0.36"/>
<path d="M52.8125 18.4062C53.5625 19.0729 53.9375 19.9792 53.9375 21.125C53.9375 22.2708 53.3854 23.2708 52.2812 24.125C52.4062 24.4375 52.4688 24.8333 52.4688 25.3125C52.4688 25.7708 52.3646 26.2292 52.1562 26.6875C51.9688 27.125 51.7188 27.5 51.4062 27.8125C50.7812 28.375 50.1354 28.6562 49.4688 28.6562C48.0729 28.6562 47.1667 28.4688 46.75 28.0938C46.8125 27.9479 46.9062 27.8125 47.0312 27.6875C47.1562 27.5417 47.2708 27.375 47.375 27.1875C47.6458 26.6667 47.7812 25.9583 47.7812 25.0625C47.7812 24.1458 47.5729 23.2812 47.1562 22.4688C46.7396 21.6354 46.1354 20.9375 45.3438 20.375C43.8438 19.3125 41.6771 18.7812 38.8438 18.7812C36.7188 18.7812 34.9896 19.4896 33.6562 20.9062C32.1979 22.4271 31.4688 24.5729 31.4688 27.3438V32.7812C33.4896 31.6771 35.7083 31.125 38.125 31.125C40.5417 31.125 42.6458 31.3125 44.4375 31.6875C46.25 32.0417 47.8646 32.6458 49.2812 33.5C52.1771 35.2292 54.1042 38.0104 55.0625 41.8438C55.4792 43.5312 56.4688 44.8333 58.0312 45.75C56.4688 46.625 55.4062 48.0625 54.8438 50.0625C54.3021 52.0417 53.6042 53.8958 52.75 55.625C51.8958 57.3333 50.8021 58.7917 49.4688 60C46.6771 62.5208 42.6875 63.7812 37.5 63.7812C29.1042 63.7812 23.3021 60.4167 20.0938 53.6875C18.9062 51.2083 18.125 48.125 17.75 44.4375C17.5833 42.8958 17.1354 41.5625 16.4062 40.4375C15.6979 39.2917 14.875 38.4896 13.9375 38.0312C16.1667 36.9896 17.4271 35.1146 17.7188 32.4062C18.0312 29.6979 18.7917 27.25 20 25.0625C21.2083 22.875 22.7396 21 24.5938 19.4375C28.4896 16.1875 33.1042 14.5625 38.4375 14.5625C40.875 14.5625 42.6771 14.7812 43.8438 15.2188C45.0938 15.6771 46.0625 15.9062 46.75 15.9062C47.3333 15.9062 47.625 15.5417 47.625 14.8125C47.625 14.3958 47.5521 13.9375 47.4062 13.4375C47.9479 13.125 48.5521 12.9688 49.2188 12.9688C49.8854 12.9688 50.4375 13.0312 50.875 13.1562C51.3333 13.2812 51.7396 13.4792 52.0938 13.75C52.9479 14.375 53.375 15.1667 53.375 16.125C53.375 17.0625 53.1875 17.8229 52.8125 18.4062ZM24.8438 54.2812C25.1562 54.1562 25.3125 53.9375 25.3125 53.625C25.3125 53.1667 25.0938 52.4479 24.6562 51.4688C23.5521 48.9479 23 44.4688 23 38.0312C23 33.1979 23.5833 29.0729 24.75 25.6562C24.8958 25.1354 24.9688 24.7396 24.9688 24.4688C24.9688 24.1979 24.8333 24.0208 24.5625 23.9375C23.5417 25.2083 22.8333 26.3958 22.4375 27.5C21.6875 29.5833 21.0833 32.4792 20.625 36.1875C20.5833 36.5833 20.0729 37.0938 19.0938 37.7188C18.8646 37.8646 18.6562 37.9688 18.4688 38.0312C19.2604 38.3854 19.8125 38.75 20.125 39.125C20.4375 39.5 20.6042 39.7708 20.625 39.9375C21.1458 44.3958 21.6458 47.3958 22.125 48.9375C22.8333 51.1042 23.7396 52.8854 24.8438 54.2812ZM31.4688 51.8438C31.4688 55.5521 32.7604 57.9583 35.3438 59.0625C36.1562 59.4167 36.9583 59.5938 37.75 59.5938C38.5625 59.5938 39.2604 59.4479 39.8438 59.1562C40.4479 58.8646 40.9688 58.4167 41.4062 57.8125C42.3854 56.5 42.875 54.6146 42.875 52.1562V42.375C42.875 40 42.4062 38.2292 41.4688 37.0625C40.5312 35.8958 39.2812 35.3125 37.7188 35.3125C34.9062 35.3125 32.9896 36.6458 31.9688 39.3125C31.6354 40.2292 31.4688 41.2917 31.4688 42.5V51.8438ZM44.3438 36.375C45.4479 38.8542 46 41.9688 46 45.7188C46 49.3438 45.875 52.0208 45.625 53.75C45.3958 55.4792 45.2292 56.4688 45.125 56.7188C45.9792 56.5521 46.7188 55 47.3438 52.0625C47.5312 51.1875 47.7188 50.2292 47.9062 49.1875C48.2604 47.2708 49.0104 46.1146 50.1562 45.7188C49.5521 45.5312 49.0521 45.1354 48.6562 44.5312C48.2604 43.9271 47.9583 43 47.75 41.75C47.5417 40.5 47.1042 39.3229 46.4375 38.2188C45.7708 37.1146 45.0729 36.5 44.3438 36.375Z" fill="black"/>
</svg>
