<svg width="70" height="70" viewBox="0 0 70 70" fill="none" xmlns="http://www.w3.org/2000/svg">
<circle cx="35" cy="35" r="35" fill="#3AE60F" fill-opacity="0.51"/>
<path d="M22.9375 60.9375C21.4583 59.9583 20.2188 58.7083 19.2188 57.1875C18.2188 55.6667 17.4792 54.125 17 52.5625C16.5417 51 16.0312 49.9271 15.4688 49.3438C14.9062 48.7604 14.2917 48.2812 13.625 47.9062C15.1875 46.9896 16.1771 45.8125 16.5938 44.375C17.2188 42.0833 18.9375 40.0417 21.75 38.25C22.5833 37.7292 23.4375 37.3125 24.3125 37C21.8542 35.4792 20.0625 33.5104 18.9375 31.0938L18.3125 29.75C17.6875 28.3333 16.8542 27.3333 15.8125 26.75C16.6458 26.3542 17.2188 25.9479 17.5312 25.5312C17.9479 24.9688 18.4271 24.0521 18.9688 22.7812C19.5104 21.5104 20.3021 20.3333 21.3438 19.25C22.3854 18.1458 23.5938 17.25 24.9688 16.5625C27.5729 15.2292 30.9271 14.5625 35.0312 14.5625C39.1354 14.5625 42.5208 15.2396 45.1875 16.5938C47.8542 17.9271 49.8542 20.1354 51.1875 23.2188C51.8958 24.8438 52.8854 26.0208 54.1562 26.75C52.9271 27.4375 51.9479 28.5625 51.2188 30.125C49.7396 33.3125 47.9271 35.6042 45.7812 37C48.5729 37.9583 50.7708 39.6667 52.375 42.125C52.8542 42.875 53.1667 43.5521 53.3125 44.1562C53.4792 44.7396 53.6771 45.2188 53.9062 45.5938C54.1354 45.9688 54.3958 46.3021 54.6875 46.5938C55.1667 47.1146 55.7188 47.5521 56.3438 47.9062C54.8854 48.7188 53.8125 50.0833 53.125 52C52.4375 53.9167 51.5625 55.6354 50.5 57.1562C49.4375 58.6771 48.1667 59.9271 46.6875 60.9062C43.8125 62.8229 39.9583 63.7812 35.125 63.7812C29.8542 63.7812 25.7917 62.8333 22.9375 60.9375ZM33.4062 35.7812C34.0104 35.9271 34.5729 36 35.0938 36C35.6354 36 36.1875 35.9271 36.75 35.7812C37.3333 35.6354 37.8542 35.3646 38.3125 34.9688C39.3958 34.0729 39.9375 32.6458 39.9375 30.6875V23.7188C39.9375 22.2812 39.4375 21.0833 38.4375 20.125C37.5 19.2292 36.3958 18.7812 35.125 18.7812C33.8542 18.7812 32.8333 19.1042 32.0625 19.75C30.7083 20.8542 30.0312 22.1042 30.0312 23.5V30.6875C30.0312 33.5417 31.1562 35.2396 33.4062 35.7812ZM25.6875 33.5938C24.3125 31.6979 23.625 29.2188 23.625 26.1562C23.625 23.7812 24.4167 21.4583 26 19.1875C25.2708 19.3125 24.5104 19.7812 23.7188 20.5938C22.9271 21.3854 22.2917 22.5625 21.8125 24.125C21.4792 25.0625 20.875 25.8125 20 26.375C19.7292 26.5417 19.4688 26.6667 19.2188 26.75C20.4896 27.1667 21.3021 27.8438 21.6562 28.7812C22.3021 30.4479 22.9167 31.6562 23.5 32.4062C24.1042 33.1354 24.8333 33.5312 25.6875 33.5938ZM42.5312 33.5938C43.0521 33.5104 43.4271 33.25 43.6562 32.8125C44.0312 32.1042 44.3125 31.2188 44.5 30.1562C44.6875 29.0938 44.8333 28.4375 44.9375 28.1875C45.0625 27.9167 45.2188 27.6979 45.4062 27.5312C45.7604 27.2188 46.2708 26.9583 46.9375 26.75C46.1458 26.4792 45.5625 26.0729 45.1875 25.5312C44.8333 24.9688 44.6042 24.4271 44.5 23.9062C44.4167 23.3854 44.2708 22.8542 44.0625 22.3125C43.8542 21.75 43.625 21.2708 43.375 20.875C42.8125 20.0417 42.2604 19.5833 41.7188 19.5L42.0312 20.1875C42.5312 21.2292 42.7812 23.4167 42.7812 26.75V28.8125C42.7812 30.9375 42.6979 32.5312 42.5312 33.5938ZM29.0938 52.8438C29.0938 54.9688 29.7188 56.6562 30.9688 57.9062C32.0938 59.0312 33.4792 59.5938 35.125 59.5938C36.75 59.5938 38.0833 59.0312 39.125 57.9062C40.2917 56.6771 40.875 54.9896 40.875 52.8438V45.5625C40.875 42.7917 39.6458 41.0833 37.1875 40.4375C36.5 40.2708 35.7917 40.1875 35.0625 40.1875C34.3542 40.1875 33.6354 40.3125 32.9062 40.5625C32.1979 40.8125 31.5625 41.1667 31 41.625C29.7292 42.6667 29.0938 43.9792 29.0938 45.5625V52.8438ZM42.9375 41.0625C43.4583 42.2292 43.7188 43.9479 43.7188 46.2188C43.7188 48.4688 43.6875 50.0729 43.625 51.0312C43.5833 51.9896 43.5208 52.8542 43.4375 53.625C43.2708 55.125 43.0729 56.1562 42.8438 56.7188C43.5104 56.5938 44 56.2604 44.3125 55.7188C44.8125 54.8646 45.1979 53.6667 45.4688 52.125C45.9271 49.7083 46.7292 48.3021 47.875 47.9062C46.5208 47.4896 45.7396 46.6458 45.5312 45.375C45.3229 44.0833 44.9688 43.0729 44.4688 42.3438C43.9896 41.5938 43.4792 41.1667 42.9375 41.0625ZM23.5938 56.75C22.2188 53.3125 21.5312 50.3646 21.5312 47.9062C21.5312 45.8021 21.7292 44.2917 22.125 43.375C22.5208 42.4375 22.8958 41.6667 23.25 41.0625C21.7917 41.3125 20.6667 42.7292 19.875 45.3125C19.625 46.1042 19.3021 46.6875 18.9062 47.0625C18.5104 47.4167 17.9896 47.6979 17.3438 47.9062C18.5938 48.3021 19.4167 49.2083 19.8125 50.625C20.2292 52.0417 20.6042 53.1146 20.9375 53.8438C21.2708 54.5729 21.5938 55.1458 21.9062 55.5625C22.4062 56.25 22.9688 56.6458 23.5938 56.75Z" fill="black"/>
</svg>
