<svg width="70" height="70" viewBox="0 0 70 70" fill="none" xmlns="http://www.w3.org/2000/svg">
<circle cx="35" cy="35" r="35" fill="#3AE60F" fill-opacity="0.51"/>
<path d="M39.7812 62.625C38.7188 63.2917 37.5104 63.625 36.1562 63.625C34.8021 63.625 33.5938 63.2917 32.5312 62.625C31.4688 63.2917 30.4792 63.625 29.5625 63.625C28.6667 63.625 27.9271 63.5417 27.3438 63.375C26.7604 63.2292 26.25 63.0208 25.8125 62.75C24.9167 62.2083 24.4688 61.5312 24.4688 60.7188C24.4688 60.3021 24.5833 59.9375 24.8125 59.625C25.2708 59.9792 25.8542 60.1562 26.5625 60.1562C28.4167 60.1562 29.6979 59.3646 30.4062 57.7812V42.5C30.4062 41.5417 30.2083 40.8333 29.8125 40.375C29.1875 39.6042 28.1146 38.8438 26.5938 38.0938C28.0104 37.4479 28.9271 36.875 29.3438 36.375C30.0521 35.5625 30.4062 34.6458 30.4062 33.625L30.4375 26.875C30.4375 25.0417 29.8646 24.125 28.7188 24.125C27.5938 24.125 26.6146 24.6042 25.7812 25.5625C25.4896 25.3125 25.3438 24.9583 25.3438 24.5C25.3438 24.0417 25.4167 23.5312 25.5625 22.9688C25.7292 22.4062 26 21.8333 26.375 21.25C27.2708 19.8542 28.5625 18.8438 30.25 18.2188C31.0833 17.9062 31.8438 17.75 32.5312 17.75C33.2188 17.75 33.7917 17.7917 34.25 17.875C35.8958 15.7917 37.3229 14.6771 38.5312 14.5312C39.7396 14.3854 40.6979 14.5625 41.4062 15.0625C42.1354 15.5417 42.5 16.3542 42.5 17.5V18.25C42.5 18.5417 42.4896 18.8542 42.4688 19.1875C42.4479 19.5208 42.4271 19.8542 42.4062 20.1875C42.3854 20.5208 42.3542 20.8333 42.3125 21.125C42.2708 21.4167 42.2188 21.8333 42.1562 22.375C42.1146 22.9167 42.0729 23.5104 42.0312 24.1562C41.9479 25.4479 41.9062 26.8333 41.9062 28.3125V33.625C41.9062 34.6458 42.125 35.4062 42.5625 35.9062C43.25 36.7188 44.3021 37.4479 45.7188 38.0938C44.1979 38.8438 43.2292 39.4583 42.8125 39.9375C42.2083 40.6875 41.9062 41.5417 41.9062 42.5V57.7812C42.6146 59.3646 43.8958 60.1562 45.75 60.1562C46.4583 60.1562 47.0417 59.9792 47.5 59.625C47.7292 59.9375 47.8438 60.3021 47.8438 60.7188C47.8438 61.1146 47.7188 61.4896 47.4688 61.8438C47.2396 62.1979 46.9167 62.5 46.5 62.75C45.5417 63.3333 44.4479 63.625 43.2188 63.625C41.9896 63.625 40.8438 63.2917 39.7812 62.625ZM33.4062 54.7188C34.4479 54.3229 35.0208 52.9583 35.125 50.625C35.25 48.2917 35.3125 45.0729 35.3125 40.9688C35.3125 36.8438 35.3021 34.1667 35.2812 32.9375C35.2812 31.6875 35.2708 30.7188 35.25 30.0312C35.2292 29.3438 35.1875 28.8333 35.125 28.5L34.9688 27.375C34.7812 26.2708 34.2604 25.5208 33.4062 25.125C33.4062 31.1042 33.3542 34.4062 33.25 35.0312C33.1667 35.6354 33.0729 36.1042 32.9688 36.4375C32.7188 37.2083 32.0312 37.7708 30.9062 38.125C32.1562 38.5625 32.8646 39.0833 33.0312 39.6875C33.2812 40.6875 33.4062 44.3438 33.4062 50.6562V54.7188Z" fill="black"/>
</svg>
