<svg width="70" height="70" viewBox="0 0 70 70" fill="none" xmlns="http://www.w3.org/2000/svg">
<circle cx="35" cy="35" r="35" fill="#3AE60F" fill-opacity="0.51"/>
<path d="M34.1875 62.75C32.9792 63.6042 31.6146 63.8229 30.0938 63.4062C28.3021 62.9271 27.4062 61.7708 27.4062 59.9375C27.4062 58.125 27.75 56.3854 28.4375 54.7188C29.125 53.0312 29.75 51.5729 30.3125 50.3438L35.0312 40.6875L43.7812 24.9375C41.5104 24.3333 39.1042 24.0312 36.5625 24.0312C34.0208 24.0312 31.9583 24.2083 30.375 24.5625C28.7917 24.9167 27.4896 25.3958 26.4688 26C24.4062 27.1667 23.375 28.625 23.375 30.375C23.375 30.9792 23.5 31.5 23.75 31.9375C23.625 32.2292 23.2708 32.375 22.6875 32.375C22.1042 32.375 21.5833 32.2604 21.125 32.0312C20.6875 31.8021 20.3021 31.5 19.9688 31.125C19.2604 30.2917 18.9062 29.2604 18.9062 28.0312C18.9062 26.7812 19.3958 25.6979 20.375 24.7812C19.625 24.2188 19.25 23.4792 19.25 22.5625C19.25 21.6458 19.5208 20.9167 20.0625 20.375C19.3542 19.2917 19 18.2604 19 17.2812C19 16.3021 19.0938 15.5208 19.2812 14.9375C19.4688 14.3542 19.7188 13.8438 20.0312 13.4062C20.7604 12.4271 21.6354 11.9375 22.6562 11.9375C22.5729 14.1667 23.5938 15.2812 25.7188 15.2812C26.3438 15.2812 27.9062 15.1562 30.4062 14.9062C32.6979 14.6771 35.4688 14.5625 38.7188 14.5625C41.9896 14.5625 45.4479 15.0521 49.0938 16.0312C49.8438 15.0521 50.6354 14.5625 51.4688 14.5625C52.6771 14.5625 53.2812 15.2604 53.2812 16.6562C53.2812 17.4688 52.9271 18.6146 52.2188 20.0938L50.6875 23.25C43.9167 37 40.5312 48.0938 40.5312 56.5312C40.5312 58.9479 41.9271 60.1562 44.7188 60.1562C45.4271 60.1562 46.0104 59.9792 46.4688 59.625C46.6979 59.9375 46.8125 60.3021 46.8125 60.7188C46.8125 61.1354 46.6875 61.5208 46.4375 61.875C46.2083 62.2292 45.9062 62.5417 45.5312 62.8125C44.6979 63.3542 43.7083 63.625 42.5625 63.625C41.4375 63.625 40.375 63.4062 39.375 62.9688C37.5417 63.9271 35.8125 63.8542 34.1875 62.75ZM26.2188 20.5625C27.7188 19.75 30.5938 19.3438 34.8438 19.3438C39.0938 19.3438 42.1979 19.8333 44.1562 20.8125C44.2188 20.1875 44.0729 19.6979 43.7188 19.3438C43.3854 18.9688 42.4896 18.6458 41.0312 18.375C39.5729 18.0833 38.0208 17.9375 36.375 17.9375C34.75 17.9375 33.4583 17.9688 32.5 18.0312C31.5625 18.0938 30.6979 18.1875 29.9062 18.3125C28.1979 18.5417 27.125 18.8542 26.6875 19.25C26.2708 19.625 26.1146 20.0625 26.2188 20.5625ZM40.4688 36.1562C34.3229 46.9896 31.25 54.125 31.25 57.5625C31.25 58.3125 31.4583 58.8542 31.875 59.1875C32.2917 59.5 32.9583 59.6562 33.875 59.6562C33.5625 59.1771 33.4062 58.7083 33.4062 58.25V57.1875C33.4062 55.6042 34.2812 52.7292 36.0312 48.5625C37.8646 44.3333 39.0208 41.6354 39.5 40.4688L40.4375 38.0938C40.6667 37.4896 40.7812 37.0521 40.7812 36.7812C40.7812 36.4896 40.6771 36.2812 40.4688 36.1562Z" fill="black"/>
</svg>
