<svg width="70" height="70" viewBox="0 0 70 70" fill="none" xmlns="http://www.w3.org/2000/svg">
<circle cx="35" cy="35" r="35" fill="#3AE60F" fill-opacity="0.51"/>
<path d="M35.0625 63.625C24.2708 63.625 18.1042 56.9167 16.5625 43.5C16.25 40.7708 15.1875 38.9688 13.375 38.0938C15.1875 37.2396 16.25 35.4896 16.5625 32.8438C16.8958 30.1771 17.5521 27.7083 18.5312 25.4375C19.5104 23.1458 20.7812 21.1875 22.3438 19.5625C25.5729 16.2292 29.8333 14.5625 35.125 14.5625C40.4167 14.5625 44.6146 16.1146 47.7188 19.2188C50.8229 22.3229 52.7188 26.9375 53.4062 33.0625C53.6771 35.5625 54.7396 37.2396 56.5938 38.0938C54.7812 38.9896 53.6979 40.9271 53.3438 43.9062C53.0104 46.8646 52.3542 49.5938 51.375 52.0938C50.3958 54.5938 49.125 56.6979 47.5625 58.4062C44.4167 61.8854 40.25 63.625 35.0625 63.625ZM35.0625 59.4375C38.4792 59.4375 40.1875 57.2188 40.1875 52.7812V25.5938C40.1875 22.4062 39.1875 20.2812 37.1875 19.2188C36.5417 18.8854 35.8333 18.7188 35.0625 18.7188C33.4375 18.7188 32.125 19.3125 31.125 20.5C30.1458 21.6875 29.6562 23.3854 29.6562 25.5938V52.7812C29.6562 54.9271 30.1146 56.5729 31.0312 57.7188C31.9688 58.8646 33.3125 59.4375 35.0625 59.4375ZM45.2812 40.0312C45.2812 38.9896 45.9896 38.2292 47.4062 37.75C45.9896 37.3125 45.2812 36.3125 45.2812 34.75V32.2188C45.2812 27.3021 44.5833 24.5417 43.1875 23.9375V54.7188C44.125 54.3438 44.7083 53.0417 44.9375 50.8125C45.1667 48.7083 45.2812 45.1146 45.2812 40.0312ZM23.6562 54.7188C23.9688 54.5938 24.125 54.375 24.125 54.0625C24.125 53.6042 23.9062 52.8854 23.4688 51.9062C22.3646 49.3854 21.8125 44.7812 21.8125 38.0938C21.8125 33.2188 22.3958 29.0729 23.5625 25.6562C23.7083 25.1354 23.7812 24.7396 23.7812 24.4688C23.7812 24.1979 23.6458 24.0208 23.375 23.9375C22.3958 25.1667 21.6979 26.3854 21.2812 27.5938C20.5104 29.8021 19.8958 32.7917 19.4375 36.5625C19.375 37.1042 18.7604 37.6146 17.5938 38.0938C18.7604 38.6146 19.375 39.1458 19.4375 39.6875C20.1875 46.1458 21.1458 50.4583 22.3125 52.625C22.7083 53.3958 23.1562 54.0938 23.6562 54.7188Z" fill="black"/>
</svg>
