<svg width="70" height="70" viewBox="0 0 70 70" fill="none" xmlns="http://www.w3.org/2000/svg">
<circle cx="35" cy="35" r="35" fill="#102282" fill-opacity="0.33"/>
<path d="M51.6667 20H26.6667C25.5167 20 24.6167 20.5833 24.0167 21.4667L15 35L24.0167 48.5167C24.6167 49.4 25.6333 50 26.7833 50H51.6667C53.5 50 55 48.5 55 46.6667V23.3333C55 21.5 53.5 20 51.6667 20ZM30 37.5C28.6167 37.5 27.5 36.3833 27.5 35C27.5 33.6167 28.6167 32.5 30 32.5C31.3833 32.5 32.5 33.6167 32.5 35C32.5 36.3833 31.3833 37.5 30 37.5ZM38.3333 37.5C36.95 37.5 35.8333 36.3833 35.8333 35C35.8333 33.6167 36.95 32.5 38.3333 32.5C39.7167 32.5 40.8333 33.6167 40.8333 35C40.8333 36.3833 39.7167 37.5 38.3333 37.5ZM46.6667 37.5C45.2833 37.5 44.1667 36.3833 44.1667 35C44.1667 33.6167 45.2833 32.5 46.6667 32.5C48.05 32.5 49.1667 33.6167 49.1667 35C49.1667 36.3833 48.05 37.5 46.6667 37.5Z" fill="black"/>
</svg>
