<svg width="99" height="75" viewBox="0 0 99 75" fill="none" xmlns="http://www.w3.org/2000/svg">
<path d="M49.5 0L92.3683 56.25H6.63174L49.5 0Z" fill="white" fill-opacity="0.56"/>
<path fill-rule="evenodd" clip-rule="evenodd" d="M49.2854 18.793L45.3273 21.834H46.3698C47.5264 21.5481 48.7359 21.3965 49.9808 21.3965C51.2257 21.3965 52.4352 21.5481 53.5918 21.834H57.9808V22.834H56.3967C57.4847 23.3496 58.5008 23.9923 59.4257 24.7428L62.6367 25.7964L62.3249 26.7466L61.1209 26.3515C61.46 26.7273 61.7803 27.1203 62.0803 27.529L66.7632 30.7339L66.1984 31.5591L63.3672 29.6215C63.7145 30.3063 64.0108 31.0214 64.2511 31.7617L64.4198 32.0712L66.9198 36.6572L66.0418 37.1358L65.3225 35.8163L65.7174 37.4886L66.9674 42.7816L65.9942 43.0114L65.3658 40.3506L65.1013 42.3167L64.4763 46.9631L63.4853 46.8298L63.8307 44.2618L61.7055 47.3563L58.393 52.1796L57.5687 51.6134L59.6148 48.6341L56.1395 50.6665L50.7332 53.8281L50.2284 52.9649L53.5812 51.0041L53.2203 51.0458C52.2433 51.2609 51.2305 51.3807 50.1922 51.395L48.7412 51.5624L41.5381 52.3932L41.4235 51.3998L45.6383 50.9137L43.6009 50.4696L38.6243 49.385L38.8373 48.408L41.5913 49.0082L38.2926 46.5144L33.1793 42.6489L33.7823 41.8512L36.2623 43.726L35.1313 42.1512L32.0747 37.8952L32.8869 37.3119L34.269 39.2363L32 31.2837L32.9616 31.0093L34.4808 36.3338V31.1465V25.3965H35.4808V29.6764L38.3345 25.9666L42.0845 21.0916L42.8771 21.7013L41.459 23.5449L43.5512 21.9375L48.6762 18L49.2854 18.793ZM60.808 46.7778L60.9444 46.6981L61.1198 46.4428C61.0175 46.556 60.9136 46.6677 60.808 46.7778ZM63.3696 43.1669L64.1262 42.0652L64.2754 40.9555C64.0315 41.7212 63.7277 42.4601 63.3696 43.1669ZM36.2836 30.2729L35.4808 31.3166V32.5415C35.6885 31.7583 35.9579 31.0003 36.2836 30.2729ZM34.989 36.8965C35.0091 37.5093 35.0659 38.1129 35.1574 38.705L34.6414 36.8965H34.989Z" fill="#F7E43C" fill-opacity="0.87"/>
</svg>
