<svg width="307" height="63" viewBox="0 0 307 63" fill="none" xmlns="http://www.w3.org/2000/svg">
<rect width="307" height="63" rx="31.5" fill="url(#paint0_diamond_8:63)"/>
<path d="M140.748 35.0371C140.748 36.2207 140.502 37.2988 140.01 38.2715C139.529 39.2441 138.879 40.123 138.059 40.9082C137.25 41.6816 136.318 42.3555 135.264 42.9297C134.221 43.5039 133.131 43.9844 131.994 44.3711C130.869 44.7695 129.738 45.0684 128.602 45.2676C127.477 45.4785 126.434 45.6016 125.473 45.6367L125.227 44.7578C126 44.5938 126.82 44.377 127.688 44.1074C128.555 43.8496 129.41 43.5273 130.254 43.1406C131.109 42.7656 131.918 42.3262 132.68 41.8223C133.453 41.3184 134.133 40.7441 134.719 40.0996C135.305 39.4434 135.768 38.7227 136.107 37.9375C136.459 37.1406 136.635 36.2617 136.635 35.3008C136.635 34.5742 136.465 33.918 136.125 33.332C135.797 32.7344 135.363 32.2305 134.824 31.8203C134.297 31.3984 133.693 31.0762 133.014 30.8535C132.346 30.6191 131.672 30.502 130.992 30.502C130.184 30.502 129.387 30.6016 128.602 30.8008C127.816 30.9883 127.043 31.2285 126.281 31.5215L125.982 30.8008C126.51 30.5664 127.066 30.2852 127.652 29.957C128.25 29.6289 128.83 29.2656 129.393 28.8672C129.967 28.457 130.512 28.0117 131.027 27.5312C131.543 27.0391 131.994 26.5176 132.381 25.9668C132.779 25.4043 133.096 24.8184 133.33 24.209C133.564 23.5879 133.682 22.9375 133.682 22.2578C133.682 21.8242 133.611 21.4316 133.471 21.0801C133.342 20.7168 133.148 20.4062 132.891 20.1484C132.633 19.8789 132.322 19.6738 131.959 19.5332C131.607 19.3809 131.215 19.3047 130.781 19.3047C130.078 19.3047 129.457 19.457 128.918 19.7617C128.391 20.0664 127.928 20.4707 127.529 20.9746C127.143 21.4785 126.814 22.0586 126.545 22.7148C126.287 23.3594 126.076 24.0215 125.912 24.7012C125.76 25.3809 125.648 26.0547 125.578 26.7227C125.508 27.3789 125.473 27.9707 125.473 28.498V42.0684L121.852 43.3516V30.4316C121.852 29.2949 121.98 28.1875 122.238 27.1094C122.496 26.0312 122.865 25.0117 123.346 24.0508C123.838 23.0781 124.43 22.1875 125.121 21.3789C125.824 20.5703 126.609 19.8789 127.477 19.3047C128.355 18.7188 129.311 18.2617 130.342 17.9336C131.385 17.6055 132.486 17.4414 133.646 17.4414C134.174 17.4414 134.684 17.5117 135.176 17.6523C135.668 17.793 136.096 18.0098 136.459 18.3027C136.834 18.5957 137.133 18.959 137.355 19.3926C137.578 19.8262 137.689 20.3301 137.689 20.9043C137.689 21.5254 137.561 22.1406 137.303 22.75C137.057 23.3477 136.723 23.9336 136.301 24.5078C135.879 25.082 135.398 25.6328 134.859 26.1602C134.32 26.6758 133.758 27.1562 133.172 27.6016C132.598 28.0469 132.023 28.4453 131.449 28.7969C130.875 29.1484 130.348 29.4414 129.867 29.6758C131.062 29.3945 132.287 29.2539 133.541 29.2539C134.455 29.2539 135.34 29.3652 136.195 29.5879C137.062 29.7988 137.83 30.1387 138.498 30.6074C139.178 31.0645 139.723 31.6621 140.133 32.4004C140.543 33.127 140.748 34.0059 140.748 35.0371ZM157.377 40.9082C157.236 41.2129 157.061 41.5 156.85 41.7695C156.639 42.0391 156.393 42.2793 156.111 42.4902C155.842 42.7012 155.543 42.8711 155.215 43C154.898 43.1172 154.564 43.1758 154.213 43.1758C153.287 43.1758 152.619 42.9238 152.209 42.4199C151.811 41.9043 151.611 41.207 151.611 40.3281V40.0117C151.4 40.4102 151.16 40.8086 150.891 41.207C150.633 41.6055 150.334 41.9629 149.994 42.2793C149.666 42.5957 149.297 42.8535 148.887 43.0527C148.477 43.252 148.02 43.3516 147.516 43.3516C146.754 43.3516 146.08 43.2051 145.494 42.9121C144.908 42.6191 144.416 42.2266 144.018 41.7344C143.619 41.2305 143.32 40.6445 143.121 39.9766C142.922 39.3086 142.822 38.5996 142.822 37.8496C142.822 36.8301 142.998 35.8164 143.35 34.8086C143.713 33.7891 144.217 32.8809 144.861 32.084C145.518 31.2871 146.297 30.6426 147.199 30.1504C148.113 29.6465 149.127 29.3945 150.24 29.3945C150.686 29.3945 151.131 29.4355 151.576 29.5176C152.021 29.5996 152.443 29.7344 152.842 29.9219C153.252 30.0977 153.621 30.332 153.949 30.625C154.289 30.918 154.564 31.2754 154.775 31.6973L152.156 32.8047C152.016 32.582 151.852 32.3711 151.664 32.1719C151.488 31.9609 151.289 31.7793 151.066 31.627C150.855 31.4746 150.627 31.3516 150.381 31.2578C150.135 31.1641 149.877 31.1172 149.607 31.1172C148.998 31.1172 148.453 31.3047 147.973 31.6797C147.504 32.0547 147.1 32.5176 146.76 33.0684C146.432 33.6191 146.18 34.2051 146.004 34.8262C145.828 35.4473 145.74 36.0098 145.74 36.5137C145.74 36.959 145.781 37.4629 145.863 38.0254C145.957 38.5762 146.115 39.0977 146.338 39.5898C146.561 40.082 146.854 40.498 147.217 40.8379C147.58 41.1777 148.037 41.3477 148.588 41.3477C149.021 41.3477 149.396 41.2539 149.713 41.0664C150.029 40.8672 150.299 40.6152 150.521 40.3105C150.744 39.9941 150.926 39.6367 151.066 39.2383C151.219 38.8281 151.33 38.4121 151.4 37.9902C151.482 37.5684 151.535 37.1523 151.559 36.7422C151.594 36.3203 151.611 35.9453 151.611 35.6172V34.4043L154.811 33.2793V40.416C154.811 40.6504 154.869 40.8672 154.986 41.0664C155.104 41.2539 155.285 41.3477 155.531 41.3477C155.824 41.3477 156.088 41.2422 156.322 41.0312C156.568 40.8086 156.762 40.5859 156.902 40.3633L157.377 40.9082ZM171.176 39.1855C170.766 39.7129 170.314 40.2285 169.822 40.7324C169.342 41.2246 168.814 41.6641 168.24 42.0508C167.678 42.4375 167.08 42.7539 166.447 43C165.814 43.2344 165.158 43.3516 164.479 43.3516C163.611 43.3516 162.814 43.1992 162.088 42.8945C161.361 42.5898 160.734 42.1562 160.207 41.5938C159.68 41.0312 159.27 40.3516 158.977 39.5547C158.684 38.7578 158.537 37.8672 158.537 36.8828C158.537 35.8516 158.742 34.873 159.152 33.9473C159.574 33.0215 160.131 32.2129 160.822 31.5215C161.525 30.8184 162.34 30.2676 163.266 29.8691C164.191 29.459 165.164 29.2539 166.184 29.2539C166.582 29.2539 166.98 29.2949 167.379 29.377C167.789 29.4473 168.176 29.5645 168.539 29.7285C168.914 29.8809 169.254 30.0918 169.559 30.3613C169.875 30.6191 170.139 30.9297 170.35 31.293L167.836 32.6641C167.719 32.3828 167.549 32.1367 167.326 31.9258C167.115 31.7148 166.875 31.5391 166.605 31.3984C166.336 31.2578 166.049 31.1523 165.744 31.082C165.451 31.0117 165.164 30.9766 164.883 30.9766C164.32 30.9766 163.816 31.1055 163.371 31.3633C162.926 31.6094 162.545 31.9375 162.229 32.3477C161.924 32.7461 161.689 33.2031 161.525 33.7188C161.361 34.2227 161.279 34.7383 161.279 35.2656C161.279 36.2734 161.402 37.1641 161.648 37.9375C161.895 38.7109 162.234 39.3613 162.668 39.8887C163.102 40.416 163.611 40.8145 164.197 41.084C164.783 41.3535 165.422 41.4883 166.113 41.4883C166.512 41.4883 166.922 41.3887 167.344 41.1895C167.766 40.9902 168.17 40.7441 168.557 40.4512C168.955 40.1465 169.33 39.8242 169.682 39.4844C170.045 39.1445 170.367 38.8398 170.648 38.5703L171.176 39.1855ZM186.504 41.0488C186.328 41.3535 186.111 41.6465 185.854 41.9277C185.596 42.1973 185.309 42.4316 184.992 42.6309C184.688 42.8301 184.359 42.9883 184.008 43.1055C183.656 43.2227 183.299 43.2812 182.936 43.2812C182.479 43.2812 182.004 43.1113 181.512 42.7715C181.02 42.4316 180.539 42.0273 180.07 41.5586C179.602 41.0781 179.156 40.5918 178.734 40.0996C178.312 39.5957 177.938 39.1797 177.609 38.8516L177.328 39.0098C177.27 39.2207 177.217 39.4844 177.17 39.8008C177.123 40.1172 177.082 40.4453 177.047 40.7852C177.012 41.125 176.982 41.459 176.959 41.7871C176.947 42.1035 176.936 42.373 176.924 42.5957L173.689 43.7207V18.918L176.924 17.793V37.3047C177.053 36.8711 177.211 36.373 177.398 35.8105C177.586 35.2363 177.803 34.6504 178.049 34.0527C178.307 33.4434 178.6 32.8457 178.928 32.2598C179.256 31.6738 179.619 31.1523 180.018 30.6953C180.416 30.2266 180.855 29.8516 181.336 29.5703C181.816 29.2891 182.338 29.1484 182.9 29.1484C183.24 29.1484 183.545 29.2129 183.814 29.3418C184.096 29.459 184.33 29.623 184.518 29.834C184.717 30.0449 184.869 30.291 184.975 30.5723C185.08 30.8535 185.133 31.1582 185.133 31.4863C185.133 32.1543 184.969 32.793 184.641 33.4023C184.312 34.0117 183.896 34.5801 183.393 35.1074C182.9 35.6348 182.361 36.1094 181.775 36.5312C181.201 36.9531 180.662 37.3105 180.158 37.6035C180.322 37.7441 180.51 37.9375 180.721 38.1836C180.932 38.418 181.148 38.6699 181.371 38.9395C181.605 39.209 181.846 39.4844 182.092 39.7656C182.35 40.0469 182.602 40.2988 182.848 40.5215C183.094 40.7441 183.34 40.9258 183.586 41.0664C183.844 41.207 184.084 41.2773 184.307 41.2773C184.646 41.2773 184.957 41.2012 185.238 41.0488C185.52 40.8965 185.76 40.6973 185.959 40.4512L186.504 41.0488ZM181.793 32.7695C181.793 32.5703 181.705 32.3828 181.529 32.207C181.354 32.0312 181.172 31.9434 180.984 31.9434C180.75 31.9434 180.51 32.0605 180.264 32.2949C180.029 32.5293 179.801 32.8281 179.578 33.1914C179.355 33.5547 179.139 33.959 178.928 34.4043C178.729 34.8496 178.547 35.2832 178.383 35.7051C178.219 36.127 178.072 36.5195 177.943 36.8828C177.826 37.2344 177.738 37.498 177.68 37.6738C177.844 37.5566 178.055 37.3809 178.312 37.1465C178.582 36.9121 178.869 36.6484 179.174 36.3555C179.479 36.0508 179.783 35.7344 180.088 35.4062C180.404 35.0664 180.686 34.7383 180.932 34.4219C181.189 34.0938 181.395 33.7891 181.547 33.5078C181.711 33.2148 181.793 32.9688 181.793 32.7695Z" fill="black"/>
<defs>
<radialGradient id="paint0_diamond_8:63" cx="0" cy="0" r="1" gradientUnits="userSpaceOnUse" gradientTransform="translate(153.5 31.5) rotate(90) scale(31.5 153.5)">
<stop offset="0.567708" stop-color="#FFE600"/>
<stop offset="1" stop-color="#FFE600" stop-opacity="0"/>
</radialGradient>
</defs>
</svg>
