<svg width="307" height="63" viewBox="0 0 307 63" fill="none" xmlns="http://www.w3.org/2000/svg">
<rect width="307" height="63" rx="31.5" fill="url(#paint0_diamond)"/>
<path d="M114.943 22.082C114.943 22.9727 114.768 23.8574 114.416 24.7363C114.064 25.6152 113.59 26.4297 112.992 27.1797C112.406 27.9297 111.727 28.5859 110.953 29.1484C110.18 29.7109 109.377 30.1152 108.545 30.3613L108.176 29.7461C108.668 29.5 109.119 29.1836 109.529 28.7969C109.939 28.4102 110.291 27.9766 110.584 27.4961C110.877 27.0039 111.1 26.4883 111.252 25.9492C111.416 25.3984 111.498 24.8418 111.498 24.2793C111.498 23.6348 111.404 23.0254 111.217 22.4512C111.029 21.877 110.754 21.3789 110.391 20.957C110.027 20.5234 109.576 20.1836 109.037 19.9375C108.51 19.6914 107.9 19.5684 107.209 19.5684C106.365 19.5684 105.592 19.7324 104.889 20.0605C104.186 20.3887 103.553 20.834 102.99 21.3965C102.428 21.9473 101.936 22.5859 101.514 23.3125C101.104 24.0273 100.758 24.7832 100.477 25.5801C100.207 26.3652 100.002 27.1621 99.8613 27.9707C99.7207 28.7793 99.6504 29.541 99.6504 30.2559C99.6504 30.9824 99.7266 31.7324 99.8789 32.5059C100.031 33.2793 100.254 34.041 100.547 34.791C100.84 35.541 101.203 36.25 101.637 36.918C102.07 37.5859 102.568 38.1719 103.131 38.6758C103.705 39.1797 104.338 39.584 105.029 39.8887C105.732 40.1816 106.494 40.3281 107.314 40.3281C107.877 40.3281 108.422 40.252 108.949 40.0996C109.488 39.9473 110.004 39.7422 110.496 39.4844C110.988 39.2266 111.451 38.9219 111.885 38.5703C112.33 38.2188 112.74 37.8379 113.115 37.4277L113.695 37.9902C113.18 38.6699 112.564 39.3262 111.85 39.959C111.146 40.5801 110.385 41.1367 109.564 41.6289C108.744 42.1094 107.883 42.4961 106.98 42.7891C106.09 43.0703 105.205 43.2109 104.326 43.2109C103.471 43.2109 102.662 43.0645 101.9 42.7715C101.15 42.4668 100.459 42.0625 99.8262 41.5586C99.1934 41.043 98.625 40.4453 98.1211 39.7656C97.6289 39.0742 97.207 38.3418 96.8555 37.5684C96.5156 36.7949 96.252 35.998 96.0645 35.1777C95.8887 34.3574 95.8008 33.5547 95.8008 32.7695C95.8008 31.6328 95.9883 30.4668 96.3633 29.2715C96.75 28.0645 97.2773 26.8984 97.9453 25.7734C98.6133 24.6367 99.3984 23.5645 100.301 22.5566C101.215 21.5488 102.193 20.6699 103.236 19.9199C104.291 19.1699 105.387 18.5781 106.523 18.1445C107.672 17.6992 108.814 17.4766 109.951 17.4766C110.654 17.4766 111.311 17.582 111.92 17.793C112.529 17.9922 113.057 18.2852 113.502 18.6719C113.947 19.0586 114.299 19.5391 114.557 20.1133C114.814 20.6875 114.943 21.3438 114.943 22.082ZM122.379 43.4043C121.512 43.4043 120.697 43.252 119.936 42.9473C119.186 42.6309 118.529 42.1973 117.967 41.6465C117.416 41.0957 116.977 40.4512 116.648 39.7129C116.332 38.9629 116.174 38.1484 116.174 37.2695C116.174 36.2734 116.338 35.3418 116.666 34.4746C116.994 33.5957 117.445 32.8047 118.02 32.1016C118.605 31.3984 119.291 30.7891 120.076 30.2734C120.873 29.7578 121.734 29.3535 122.66 29.0605L123.17 29.6758C122.643 30.0625 122.15 30.5078 121.693 31.0117C121.236 31.5039 120.838 32.043 120.498 32.6289C120.158 33.2031 119.889 33.8125 119.689 34.457C119.49 35.0898 119.391 35.7402 119.391 36.4082C119.391 36.9707 119.473 37.5625 119.637 38.1836C119.801 38.8047 120.047 39.373 120.375 39.8887C120.703 40.4043 121.113 40.832 121.605 41.1719C122.109 41.5 122.689 41.6641 123.346 41.6641C123.932 41.6641 124.436 41.5586 124.857 41.3477C125.291 41.1367 125.648 40.8496 125.93 40.4863C126.211 40.123 126.422 39.7012 126.562 39.2207C126.703 38.7285 126.773 38.2129 126.773 37.6738C126.773 37.041 126.65 36.3965 126.404 35.7402C126.158 35.0723 125.818 34.457 125.385 33.8945C124.963 33.332 124.465 32.8633 123.891 32.4883C123.316 32.1133 122.701 31.8965 122.045 31.8379C122.455 31.3691 122.906 30.9355 123.398 30.5371C123.891 30.1387 124.389 29.7578 124.893 29.3945C125.572 29.6172 126.17 29.9453 126.686 30.3789C127.213 30.8125 127.652 31.3105 128.004 31.873C128.367 32.4355 128.643 33.0508 128.83 33.7188C129.018 34.375 129.111 35.043 129.111 35.7227C129.111 36.6484 128.947 37.5684 128.619 38.4824C128.303 39.3965 127.846 40.2227 127.248 40.9609C126.662 41.6875 125.953 42.2793 125.121 42.7363C124.301 43.1816 123.387 43.4043 122.379 43.4043ZM146.602 40.9434C146.461 41.248 146.279 41.5352 146.057 41.8047C145.834 42.0742 145.582 42.3145 145.301 42.5254C145.031 42.7363 144.738 42.9004 144.422 43.0176C144.105 43.1465 143.777 43.2109 143.438 43.2109C142.512 43.2109 141.838 42.959 141.416 42.4551C141.006 41.9395 140.801 41.2422 140.801 40.3633V33.209C140.801 33.127 140.795 33.0332 140.783 32.9277C140.783 32.8105 140.766 32.7051 140.73 32.6113C140.695 32.5059 140.648 32.418 140.59 32.3477C140.531 32.2773 140.449 32.2422 140.344 32.2422C140.016 32.2422 139.682 32.4414 139.342 32.8398C139.014 33.2383 138.691 33.7539 138.375 34.3867C138.07 35.0195 137.783 35.7285 137.514 36.5137C137.256 37.2988 137.027 38.0781 136.828 38.8516C136.629 39.6133 136.471 40.3281 136.354 40.9961C136.248 41.6641 136.195 42.1973 136.195 42.5957L132.996 43.7207V31.9082C132.996 31.6738 132.938 31.4629 132.82 31.2754C132.703 31.0762 132.521 30.9766 132.275 30.9766C131.982 30.9766 131.713 31.0879 131.467 31.3105C131.232 31.5215 131.045 31.7324 130.904 31.9434L130.43 31.416C130.57 31.123 130.746 30.8418 130.957 30.5723C131.18 30.291 131.426 30.0449 131.695 29.834C131.977 29.623 132.275 29.459 132.592 29.3418C132.92 29.2129 133.26 29.1484 133.611 29.1484C134.525 29.1484 135.182 29.4062 135.58 29.9219C135.99 30.4258 136.195 31.1113 136.195 31.9785V37.709C136.301 37.2285 136.441 36.6836 136.617 36.0742C136.805 35.4531 137.027 34.8262 137.285 34.1934C137.543 33.5605 137.83 32.9453 138.146 32.3477C138.475 31.7383 138.832 31.1992 139.219 30.7305C139.605 30.25 140.027 29.8691 140.484 29.5879C140.941 29.2949 141.434 29.1484 141.961 29.1484C142.512 29.1484 142.928 29.2715 143.209 29.5176C143.49 29.752 143.689 30.0566 143.807 30.4316C143.936 30.7949 144.006 31.1992 144.018 31.6445C144.029 32.0898 144.035 32.5176 144.035 32.9277V40.4512C144.035 40.6855 144.094 40.9023 144.211 41.1016C144.328 41.2891 144.51 41.3828 144.756 41.3828C145.025 41.3828 145.277 41.2773 145.512 41.0664C145.758 40.8438 145.951 40.627 146.092 40.416L146.602 40.9434ZM155.092 40.9434C154.822 41.5176 154.512 41.957 154.16 42.2617C153.809 42.5664 153.463 42.7891 153.123 42.9297C152.736 43.0938 152.338 43.1875 151.928 43.2109C151.4 43.2109 150.967 43.1289 150.627 42.9648C150.299 42.8008 150.035 42.584 149.836 42.3145C149.648 42.0449 149.514 41.7402 149.432 41.4004C149.361 41.0605 149.326 40.7148 149.326 40.3633V31.1523H147.463L148.219 29.3945H149.326V23.1719L152.543 22.0469V29.3945H155.883L155.162 31.1523H152.543V40.4512C152.543 40.7324 152.607 40.9551 152.736 41.1191C152.865 41.2832 153.029 41.3711 153.229 41.3828C153.428 41.3828 153.65 41.3066 153.896 41.1543C154.143 41.002 154.383 40.7559 154.617 40.416L155.092 40.9434ZM161.736 20.0605L160.805 26.4766L159.082 27.0215L158.027 21.3262L161.736 20.0605ZM164.162 40.9434C163.893 41.5176 163.576 41.957 163.213 42.2617C162.861 42.5664 162.521 42.7891 162.193 42.9297C161.807 43.0938 161.414 43.1875 161.016 43.2109C160.5 43.2109 160.072 43.1289 159.732 42.9648C159.393 42.8008 159.123 42.584 158.924 42.3145C158.725 42.0449 158.584 41.7402 158.502 41.4004C158.432 41.0605 158.396 40.7148 158.396 40.3633V30.502L161.631 29.3945V40.4512C161.631 40.7324 161.695 40.9551 161.824 41.1191C161.953 41.2832 162.117 41.3711 162.316 41.3828C162.527 41.3828 162.75 41.3066 162.984 41.1543C163.23 41.002 163.465 40.7559 163.688 40.416L164.162 40.9434ZM180.879 40.9434C180.738 41.248 180.557 41.5352 180.334 41.8047C180.111 42.0742 179.859 42.3145 179.578 42.5254C179.309 42.7363 179.016 42.9004 178.699 43.0176C178.383 43.1465 178.055 43.2109 177.715 43.2109C176.789 43.2109 176.115 42.959 175.693 42.4551C175.283 41.9395 175.078 41.2422 175.078 40.3633V33.209C175.078 33.127 175.072 33.0332 175.061 32.9277C175.061 32.8105 175.043 32.7051 175.008 32.6113C174.973 32.5059 174.926 32.418 174.867 32.3477C174.809 32.2773 174.727 32.2422 174.621 32.2422C174.293 32.2422 173.959 32.4414 173.619 32.8398C173.291 33.2383 172.969 33.7539 172.652 34.3867C172.348 35.0195 172.061 35.7285 171.791 36.5137C171.533 37.2988 171.305 38.0781 171.105 38.8516C170.906 39.6133 170.748 40.3281 170.631 40.9961C170.525 41.6641 170.473 42.1973 170.473 42.5957L167.273 43.7207V31.9082C167.273 31.6738 167.215 31.4629 167.098 31.2754C166.98 31.0762 166.799 30.9766 166.553 30.9766C166.26 30.9766 165.99 31.0879 165.744 31.3105C165.51 31.5215 165.322 31.7324 165.182 31.9434L164.707 31.416C164.848 31.123 165.023 30.8418 165.234 30.5723C165.457 30.291 165.703 30.0449 165.973 29.834C166.254 29.623 166.553 29.459 166.869 29.3418C167.197 29.2129 167.537 29.1484 167.889 29.1484C168.803 29.1484 169.459 29.4062 169.857 29.9219C170.268 30.4258 170.473 31.1113 170.473 31.9785V37.709C170.578 37.2285 170.719 36.6836 170.895 36.0742C171.082 35.4531 171.305 34.8262 171.562 34.1934C171.82 33.5605 172.107 32.9453 172.424 32.3477C172.752 31.7383 173.109 31.1992 173.496 30.7305C173.883 30.25 174.305 29.8691 174.762 29.5879C175.219 29.2949 175.711 29.1484 176.238 29.1484C176.789 29.1484 177.205 29.2715 177.486 29.5176C177.768 29.752 177.967 30.0566 178.084 30.4316C178.213 30.7949 178.283 31.1992 178.295 31.6445C178.307 32.0898 178.312 32.5176 178.312 32.9277V40.4512C178.312 40.6855 178.371 40.9023 178.488 41.1016C178.605 41.2891 178.787 41.3828 179.033 41.3828C179.303 41.3828 179.555 41.2773 179.789 41.0664C180.035 40.8438 180.229 40.627 180.369 40.416L180.879 40.9434ZM197.068 40.9434C196.799 41.5176 196.482 41.957 196.119 42.2617C195.756 42.5664 195.41 42.7891 195.082 42.9297C194.695 43.0938 194.303 43.1875 193.904 43.2109C193.377 43.2109 192.943 43.1289 192.604 42.9648C192.275 42.8008 192.012 42.584 191.812 42.3145C191.613 42.0449 191.473 41.7402 191.391 41.4004C191.32 41.0605 191.285 40.7148 191.285 40.3633V34.7559C191.191 35.1777 191.068 35.6816 190.916 36.2676C190.775 36.8535 190.6 37.4688 190.389 38.1133C190.178 38.7461 189.932 39.3789 189.65 40.0117C189.369 40.6328 189.041 41.1895 188.666 41.6816C188.303 42.1738 187.887 42.5781 187.418 42.8945C186.961 43.1992 186.445 43.3516 185.871 43.3516C185.391 43.3516 185.01 43.2578 184.729 43.0703C184.459 42.8945 184.254 42.6426 184.113 42.3145C183.984 41.9746 183.902 41.5762 183.867 41.1191C183.844 40.6504 183.832 40.1348 183.832 39.5723V31.9434C183.832 31.6621 183.768 31.4395 183.639 31.2754C183.51 31.1113 183.34 31.0293 183.129 31.0293C182.93 31.0176 182.707 31.0879 182.461 31.2402C182.215 31.3926 181.975 31.6387 181.74 31.9785L181.266 31.4512C181.535 30.8887 181.846 30.4551 182.197 30.1504C182.549 29.834 182.895 29.6055 183.234 29.4648C183.621 29.3008 184.02 29.207 184.43 29.1836C184.957 29.1836 185.385 29.2656 185.713 29.4297C186.053 29.5938 186.316 29.8105 186.504 30.0801C186.703 30.3379 186.838 30.6367 186.908 30.9766C186.99 31.3164 187.031 31.6621 187.031 32.0137V39.291C187.031 39.748 187.113 40.0469 187.277 40.1875C187.441 40.3281 187.652 40.3105 187.91 40.1348C188.18 39.9473 188.473 39.6133 188.789 39.1328C189.117 38.6406 189.445 37.9961 189.773 37.1992C189.984 36.4375 190.189 35.6523 190.389 34.8438C190.553 34.1523 190.717 33.3906 190.881 32.5586C191.057 31.7266 191.191 30.9238 191.285 30.1504L194.52 29.0254V40.4512C194.52 40.7324 194.584 40.9551 194.713 41.1191C194.842 41.2832 195.006 41.3711 195.205 41.3828C195.404 41.3828 195.621 41.3066 195.855 41.1543C196.102 41.002 196.342 40.7559 196.576 40.416L197.068 40.9434ZM211.008 39.5723C210.598 40.0996 210.146 40.5918 209.654 41.0488C209.174 41.5059 208.646 41.9043 208.072 42.2441C207.51 42.584 206.912 42.8535 206.279 43.0527C205.646 43.252 204.99 43.3516 204.311 43.3516C203.443 43.3516 202.646 43.1992 201.92 42.8945C201.193 42.5781 200.566 42.1504 200.039 41.6113C199.512 41.0605 199.102 40.416 198.809 39.6777C198.516 38.9277 198.369 38.125 198.369 37.2695C198.369 36.5664 198.469 35.875 198.668 35.1953C198.867 34.5156 199.148 33.877 199.512 33.2793C199.875 32.6816 200.303 32.1309 200.795 31.627C201.299 31.1113 201.85 30.6719 202.447 30.3086C203.045 29.9453 203.678 29.6641 204.346 29.4648C205.014 29.2539 205.699 29.1484 206.402 29.1484C206.895 29.1484 207.357 29.207 207.791 29.3242C208.236 29.4414 208.629 29.6289 208.969 29.8867C209.309 30.1328 209.578 30.4551 209.777 30.8535C209.977 31.2402 210.076 31.7031 210.076 32.2422C210.076 32.6875 209.941 33.1562 209.672 33.6484C209.414 34.1406 209.068 34.6328 208.635 35.125C208.213 35.6172 207.732 36.1035 207.193 36.584C206.654 37.0527 206.104 37.4922 205.541 37.9023C204.99 38.3008 204.457 38.6523 203.941 38.957C203.426 39.2617 202.975 39.4961 202.588 39.6602C203.021 40.1992 203.525 40.6387 204.1 40.9785C204.674 41.3184 205.283 41.4883 205.928 41.4883C206.338 41.4883 206.754 41.4121 207.176 41.2598C207.598 41.0957 208.002 40.8906 208.389 40.6445C208.787 40.3984 209.162 40.1289 209.514 39.8359C209.877 39.543 210.199 39.2676 210.48 39.0098L211.008 39.5723ZM206.771 32.8926C206.771 32.623 206.725 32.3652 206.631 32.1191C206.549 31.873 206.426 31.6621 206.262 31.4863C206.098 31.2988 205.898 31.1523 205.664 31.0469C205.441 30.9297 205.184 30.8711 204.891 30.8711C204.363 30.8711 203.877 31.0586 203.432 31.4336C202.986 31.7969 202.6 32.248 202.271 32.7871C201.955 33.3262 201.703 33.9004 201.516 34.5098C201.34 35.1074 201.252 35.6348 201.252 36.0918C201.252 36.5371 201.322 36.9941 201.463 37.4629C201.604 37.9316 201.797 38.3828 202.043 38.8164C202.512 38.5586 203.021 38.2012 203.572 37.7441C204.123 37.2871 204.633 36.7891 205.102 36.25C205.582 35.6992 205.98 35.1309 206.297 34.5449C206.613 33.959 206.771 33.4082 206.771 32.8926Z" fill="black"/>
<defs>
<radialGradient id="paint0_diamond" cx="0" cy="0" r="1" gradientUnits="userSpaceOnUse" gradientTransform="translate(153.5 31.5) rotate(90) scale(31.5 153.5)">
<stop offset="0.567708" stop-color="#FFE600"/>
<stop offset="1" stop-color="#FFE600" stop-opacity="0"/>
</radialGradient>
</defs>
</svg>
