<svg width="308" height="64" viewBox="0 0 308 64" fill="none" xmlns="http://www.w3.org/2000/svg">
<rect x="0.265564" y="0.406342" width="307" height="63" rx="31.5" fill="url(#paint0_diamond)"/>
<path d="M119.068 22.1783L123.604 22.2503H127.744C130.912 22.2503 133.288 22.8623 134.872 24.0863C136.48 25.3103 137.284 26.8103 137.284 28.5863C137.284 30.3383 136.552 31.9103 135.088 33.3023C133.624 34.6703 131.752 35.3543 129.472 35.3543C128.224 35.3543 126.94 35.0663 125.62 34.4903V42.0503C125.62 44.1623 125.872 45.2183 126.376 45.2183H128.464C128.704 45.2183 128.824 45.4223 128.824 45.8303C128.824 46.2143 128.704 46.4063 128.464 46.4063H126.916L125.368 46.3703H123.928L118.888 46.4783C118.696 46.4783 118.6 46.2743 118.6 45.8663C118.6 45.4583 118.696 45.2543 118.888 45.2543H120.436C121.036 45.2543 121.432 45.1463 121.624 44.9303C121.816 44.6903 121.912 44.2463 121.912 43.5983V26.5343C121.912 24.4223 121.66 23.3663 121.156 23.3663H119.068C118.876 23.3663 118.78 23.1743 118.78 22.7903C118.78 22.3823 118.876 22.1783 119.068 22.1783ZM127.528 33.5543C129.376 33.5543 130.816 33.0983 131.848 32.1863C132.88 31.2743 133.396 30.1463 133.396 28.8023C133.396 27.4343 132.832 26.2463 131.704 25.2383C130.6 24.2063 129.004 23.6903 126.916 23.6903C126.46 23.6903 126.124 23.8103 125.908 24.0503C125.716 24.2903 125.62 24.7223 125.62 25.3463V33.3383C126.268 33.4823 126.904 33.5543 127.528 33.5543ZM140.008 29.0183L142.852 29.0903C143.116 29.0903 143.344 29.0903 143.536 29.0903L147.28 29.0183C147.448 29.0183 147.532 29.1983 147.532 29.5583C147.532 29.8943 147.436 30.0623 147.244 30.0623H145.588C145.276 30.0623 145.12 30.2543 145.12 30.6383V42.5543C145.12 44.3543 145.36 45.2543 145.84 45.2543H146.776C149.416 45.2063 151.24 44.8343 152.248 44.1383L152.428 42.7343C152.476 42.5903 152.596 42.5183 152.788 42.5183C153.004 42.5183 153.148 42.5183 153.22 42.5183C153.364 42.5663 153.436 42.6383 153.436 42.7343C153.292 43.7423 153.22 45.1583 153.22 46.9823C153.22 47.1023 153.052 47.1623 152.716 47.1623C152.404 47.1623 152.248 47.1023 152.248 46.9823V46.4063H146.056L139.936 46.4783C139.768 46.4783 139.684 46.2983 139.684 45.9383C139.684 45.5783 139.756 45.3983 139.9 45.3983H141.52C141.784 45.3983 141.94 45.3503 141.988 45.2543C142.036 45.1343 142.06 44.8343 142.06 44.3543V33.0143C142.06 31.0943 141.82 30.1343 141.34 30.1343H140.044C139.756 30.1343 139.612 29.9543 139.612 29.5943C139.612 29.2103 139.744 29.0183 140.008 29.0183ZM155.864 46.4063L153.02 46.4783C152.852 46.4783 152.768 46.3223 152.768 46.0103C152.768 45.6983 152.852 45.5423 153.02 45.5423H154.172C154.436 45.5423 154.628 45.4343 154.748 45.2183C155.3 44.3063 156.404 41.8823 158.06 37.9463C159.716 33.9863 160.904 30.9863 161.624 28.9463C161.72 28.7303 161.948 28.6223 162.308 28.6223C162.692 28.6223 162.932 28.7423 163.028 28.9823C163.316 30.1823 164.156 32.4503 165.548 35.7863C166.964 39.1223 168.2 41.9063 169.256 44.1383C169.544 44.7143 169.808 45.0863 170.048 45.2543C170.288 45.4223 170.66 45.5063 171.164 45.5063C171.308 45.5063 171.38 45.6743 171.38 46.0103C171.38 46.3223 171.32 46.4783 171.2 46.4783L167.744 46.4063L163.856 46.4783C163.712 46.4783 163.64 46.3223 163.64 46.0103C163.64 45.6983 163.712 45.5423 163.856 45.5423H165.584C165.848 45.5423 165.98 45.4343 165.98 45.2183C165.98 45.1943 165.308 43.3463 163.964 39.6743H158.96C157.784 42.5783 157.196 44.2823 157.196 44.7863C157.196 45.2663 157.34 45.5063 157.628 45.5063H159.104C159.296 45.5063 159.392 45.6743 159.392 46.0103C159.392 46.3223 159.32 46.4783 159.176 46.4783L155.864 46.4063ZM163.496 38.4503C163.424 38.2343 162.8 36.4103 161.624 32.9783H161.516C160.94 34.6343 160.256 36.4583 159.464 38.4503H163.496ZM181.044 46.3703L177.444 46.4783C177.276 46.4783 177.192 46.2983 177.192 45.9383C177.192 45.5783 177.264 45.3983 177.408 45.3983H179.028C179.292 45.3983 179.448 45.3503 179.496 45.2543C179.544 45.1343 179.568 44.8343 179.568 44.3543V38.6303H179.532C179.556 37.9103 177.864 35.5943 174.456 31.6823C173.52 30.5783 172.8 30.0263 172.296 30.0263H171.468C171.276 30.0263 171.18 29.8703 171.18 29.5583C171.18 29.2223 171.252 29.0543 171.396 29.0543L174.816 29.0903L178.56 29.0543C178.704 29.0543 178.776 29.2103 178.776 29.5223C178.776 29.8343 178.716 29.9903 178.596 29.9903H176.796C176.796 30.0383 177.096 30.4223 177.696 31.1423C179.688 33.5183 180.984 35.3183 181.584 36.5423H181.692C182.052 35.9423 182.784 34.9463 183.888 33.5543C184.992 32.1623 185.616 31.3223 185.76 31.0343C185.928 30.7223 186.012 30.4823 186.012 30.3143C186.012 30.1223 185.916 30.0263 185.724 30.0263H184.716C184.596 30.0263 184.536 29.8703 184.536 29.5583C184.536 29.2223 184.62 29.0543 184.788 29.0543L188.136 29.0903L190.98 29.0543C191.148 29.0543 191.232 29.2103 191.232 29.5223C191.232 29.8343 191.136 29.9903 190.944 29.9903H190.296C189.864 29.9903 189.492 30.1223 189.18 30.3863C188.004 31.3703 186.66 32.7143 185.148 34.4183C183.66 36.0983 182.82 37.2743 182.628 37.9463V42.5543C182.628 44.3783 182.868 45.2903 183.348 45.2903H185.148C185.34 45.2903 185.436 45.4823 185.436 45.8663C185.436 46.2263 185.364 46.4063 185.22 46.4063L181.044 46.3703Z" fill="black"/>
<defs>
<radialGradient id="paint0_diamond" cx="0" cy="0" r="1" gradientUnits="userSpaceOnUse" gradientTransform="translate(153.766 31.9063) rotate(90) scale(31.5 153.5)">
<stop offset="0.4375" stop-color="#FFE600"/>
<stop offset="1" stop-color="#FFE600" stop-opacity="0"/>
</radialGradient>
</defs>
</svg>
